<svg width="31" height="31" viewBox="0 0 31 31" fill="none" xmlns="http://www.w3.org/2000/svg">
<path d="M30.4585 15.3954C30.4585 14.1571 30.3581 13.2534 30.1406 12.3163H16.0002V17.9055H24.3003C24.133 19.2945 23.2294 21.3862 21.2212 22.7918L21.1931 22.979L25.664 26.4425L25.9738 26.4735C28.8185 23.8462 30.4585 19.9805 30.4585 15.3954Z" fill="#4285F4"/>
<path d="M16.0002 30.1215C20.0665 30.1215 23.4803 28.7827 25.9738 26.4734L21.2212 22.7918C19.9495 23.6787 18.2425 24.2979 16.0002 24.2979C12.0175 24.2979 8.63718 21.6707 7.4322 18.0394L7.25558 18.0544L2.60663 21.6522L2.54584 21.8212C5.02248 26.7411 10.1097 30.1215 16.0002 30.1215Z" fill="#34A853"/>
<path d="M7.4322 18.0394C7.11426 17.1023 6.93025 16.0982 6.93025 15.0607C6.93025 14.0231 7.11426 13.0191 7.41548 12.082L7.40705 11.8824L2.69985 8.22678L2.54584 8.30003C1.5251 10.3416 0.939392 12.6343 0.939392 15.0607C0.939392 17.4872 1.5251 19.7797 2.54584 21.8213L7.4322 18.0394Z" fill="#FBBC05"/>
<path d="M16.0007 5.82347C18.8287 5.82347 20.7364 7.04506 21.8241 8.06592L26.0746 3.91581C23.4642 1.48935 20.067 0 16.0007 0C10.1102 0 5.02296 3.38029 2.54633 8.30011L7.41596 12.0821C8.63767 8.45078 12.018 5.82347 16.0007 5.82347Z" fill="#EB4335"/>
</svg>
