<svg width="32" height="32" viewBox="0 0 32 32" fill="none" xmlns="http://www.w3.org/2000/svg">
<g clip-path="url(#clip0)">
<path d="M26.5533 17.3707C26.036 16.7173 26.184 16.4267 26.5533 15.8427C26.56 15.836 30.8307 9.93466 31.2707 7.93332L31.2733 7.93199C31.492 7.20266 31.2733 6.66666 30.216 6.66666H26.7173C25.8267 6.66666 25.416 7.12666 25.196 7.64132C25.196 7.64132 23.4147 11.9053 20.8947 14.6693C20.0813 15.468 19.7053 15.724 19.2613 15.724C19.0427 15.724 18.7027 15.468 18.7027 14.7387V7.93199C18.7027 7.05732 18.4533 6.66666 17.716 6.66666H12.2147C11.656 6.66666 11.324 7.07466 11.324 7.45466C11.324 8.28399 12.584 8.47466 12.7147 10.808V15.8707C12.7147 16.98 12.5133 17.184 12.0667 17.184C10.8773 17.184 7.99067 12.9027 6.28 8.00266C5.93467 7.05199 5.59733 6.66799 4.7 6.66799H1.2C0.201333 6.66799 0 7.12799 0 7.64266C0 8.55199 1.18933 13.0733 5.53067 19.0467C8.424 23.124 12.4987 25.3333 16.2053 25.3333C18.4333 25.3333 18.7053 24.8427 18.7053 23.9987C18.7053 20.1027 18.504 19.7347 19.62 19.7347C20.1373 19.7347 21.028 19.9907 23.108 21.9573C25.4853 24.2893 25.876 25.3333 27.2067 25.3333H30.7053C31.7027 25.3333 32.208 24.8427 31.9173 23.8747C31.252 21.8387 26.756 17.6507 26.5533 17.3707Z" fill="#4B729F"/>
</g>
<defs>
<clipPath id="clip0">
<rect width="32" height="32" fill="white"/>
</clipPath>
</defs>
</svg>
