<svg width="36" height="36" viewBox="0 0 36 36" fill="none" xmlns="http://www.w3.org/2000/svg">
<path d="M13.0258 36C7.6679 35.9691 3.23596 25.0319 3.23596 19.4618C3.23596 10.3631 10.0615 8.37112 12.6921 8.37112C13.8775 8.37112 15.1434 8.83666 16.2599 9.24862C17.0406 9.53598 17.8481 9.83263 18.2972 9.83263C18.566 9.83263 19.1994 9.58028 19.7587 9.35887C20.9514 8.88405 22.4356 8.29391 24.1638 8.29391C24.1669 8.29391 24.1711 8.29391 24.1741 8.29391C25.4646 8.29391 29.3775 8.57713 31.73 12.1099L32.281 12.938L31.4879 13.5364C30.355 14.3913 28.2878 15.9507 28.2878 19.0396C28.2878 22.698 30.6289 24.1049 31.7537 24.7816C32.2501 25.0803 32.764 25.3883 32.764 26.0619C32.764 26.5017 29.2539 35.9454 24.1566 35.9454C22.9093 35.9454 22.0277 35.5705 21.25 35.2399C20.4632 34.9051 19.7844 34.6168 18.6627 34.6168C18.0942 34.6168 17.3752 34.8856 16.6141 35.1709C15.574 35.5591 14.3967 36 13.0608 36H13.0258Z" fill="#3F414E"/>
<path d="M24.7039 0C24.8366 4.78659 21.4134 8.10731 17.9943 7.89905C17.4309 4.07918 21.413 0 24.7039 0Z" fill="#3F414E"/>
</svg>
