<svg width="20" height="19" viewBox="0 0 20 19" fill="none" xmlns="http://www.w3.org/2000/svg">
<path d="M19.5 15.9434V10.4339C19.5 8.63171 19.5 7.73068 19.1295 6.93422C18.7589 6.13776 18.0612 5.53912 16.6657 4.34183L15.6102 3.43618C12.9403 1.14539 11.6053 0 10 0C8.39471 0 7.05975 1.14539 4.38982 3.43618L3.33426 4.34183C1.93881 5.53912 1.24108 6.13776 0.870542 6.93422C0.5 7.73068 0.5 8.63171 0.5 10.4339V15.9434C0.5 16.8929 0.5 17.3676 0.660698 17.7421C0.874965 18.2414 1.28595 18.6381 1.80322 18.8449C2.19119 19 2.68302 19 3.66667 19H4.01852C4.67294 19 5.00016 19 5.26862 18.9306C5.99714 18.7421 6.56619 18.1929 6.7614 17.4896C6.83333 17.2305 6.83333 16.9147 6.83333 16.283V13.9057C6.83333 12.2175 8.25105 10.8491 10 10.8491C11.749 10.8491 13.1667 12.2175 13.1667 13.9057V16.283C13.1667 16.9147 13.1667 17.2305 13.2386 17.4896C13.4338 18.1929 14.0029 18.7421 14.7314 18.9306C14.9999 19 15.3271 19 15.9815 19H16.3333C17.317 19 17.8088 19 18.1968 18.8449C18.714 18.6381 19.1251 18.2414 19.3393 17.7421C19.5 17.3676 19.5 16.8929 19.5 15.9434Z" fill="#2F80ED"/>
</svg>
